<?xml version="1.0" encoding="iso-8859-1"?>
<!-- Generator: Adobe Illustrator 18.0.0, SVG Export Plug-In . SVG Version: 6.00 Build 0)  -->
<!DOCTYPE svg PUBLIC "-//W3C//DTD SVG 1.1//EN" "http://www.w3.org/Graphics/SVG/1.1/DTD/svg11.dtd">
<svg version="1.1" id="Capa_1" xmlns="http://www.w3.org/2000/svg" xmlns:xlink="http://www.w3.org/1999/xlink" x="0px" y="0px"
	 viewBox="0 0 297 297" style="enable-background:new 0 0 297 297;" xml:space="preserve">
<path d="M179.02,65.494h-11.197c9.756-6.356,16.224-17.37,16.224-29.874C184.047,15.979,168.101,0,148.5,0
	s-35.547,15.979-35.547,35.62c0,12.504,6.468,23.518,16.224,29.874h-11.197c-24.776,0-44.934,20.184-44.934,44.989v69.374
	c0,5.482,4.445,9.929,9.929,9.929h19.41v97.285c0,5.482,4.445,9.929,9.929,9.929h72.373c5.483,0,9.929-4.446,9.929-9.929v-97.285
	h19.41c5.483,0,9.929-4.446,9.929-9.929v-69.374C223.954,85.678,203.797,65.494,179.02,65.494z M148.5,19.857
	c8.652,0,15.691,7.07,15.691,15.763s-7.039,15.766-15.691,15.766s-15.691-7.073-15.691-15.766S139.848,19.857,148.5,19.857z
	 M204.098,169.929h-9.482v-38.067c0-5.483-4.445-9.927-9.929-9.927c-5.482,0-9.928,4.443-9.928,9.927v145.281h-16.33V202.41
	c0-5.482-4.446-9.928-9.929-9.928c-5.482,0-9.929,4.445-9.929,9.928v74.732h-16.33V131.861c0-5.483-4.445-9.927-9.928-9.927
	c-5.483,0-9.929,4.443-9.929,9.927v38.067h-9.483v-59.445c0-13.856,11.25-25.132,25.077-25.132h61.041
	c13.827,0,25.077,11.275,25.077,25.132V169.929z"/>
<g>
</g>
<g>
</g>
<g>
</g>
<g>
</g>
<g>
</g>
<g>
</g>
<g>
</g>
<g>
</g>
<g>
</g>
<g>
</g>
<g>
</g>
<g>
</g>
<g>
</g>
<g>
</g>
<g>
</g>
</svg>
