<?xml version="1.0" standalone="no"?>
<!DOCTYPE svg PUBLIC "-//W3C//DTD SVG 20010904//EN"
 "http://www.w3.org/TR/2001/REC-SVG-20010904/DTD/svg10.dtd">
<svg version="1.0" xmlns="http://www.w3.org/2000/svg"
 width="100.000000pt" height="100.000000pt" viewBox="0 0 100.000000 100.000000"
 preserveAspectRatio="xMidYMid meet">

<g transform="translate(0.000000,100.000000) scale(0.100000,-0.100000)"
fill="#ACAEB0" stroke="none">
<path d="M120 585 l0 -265 29 0 c15 0 49 -3 74 -6 l46 -7 6 -62 c10 -93 15
-96 74 -42 98 87 199 117 404 117 l127 0 0 265 0 265 -380 0 -380 0 0 -265z
m700 155 c0 -6 -108 -10 -305 -10 -197 0 -305 4 -305 10 0 6 108 10 305 10
197 0 305 -4 305 -10z m0 -80 c0 -6 -108 -10 -305 -10 -197 0 -305 4 -305 10
0 6 108 10 305 10 197 0 305 -4 305 -10z m0 -70 c0 -6 -108 -10 -305 -10 -197
0 -305 4 -305 10 0 6 108 10 305 10 197 0 305 -4 305 -10z m-230 -80 c0 -6
-70 -10 -190 -10 -120 0 -190 4 -190 10 0 6 70 10 190 10 120 0 190 -4 190
-10z"/>
</g>
</svg>
