<?xml version="1.0" encoding="utf-8"?>
<!-- Generator: Adobe Illustrator 26.0.1, SVG Export Plug-In . SVG Version: 6.00 Build 0)  -->
<svg version="1.1" id="Layer_1" xmlns="http://www.w3.org/2000/svg" xmlns:xlink="http://www.w3.org/1999/xlink" x="0px" y="0px"
	 viewBox="0 0 500 500" style="enable-background:new 0 0 500 500;" xml:space="preserve">
<style type="text/css">
	.st0{fill:#FFFFFF;}
	.st1{fill:#BB33C7;}
</style>
<g>
	<path class="st1" d="M346.25,400.87c0,6.23,0.08,12.16-0.03,18.08c-0.05,2.63-0.14,5.34-0.79,7.87
		c-2.28,8.93-10.3,15.06-19.52,15.19c-3.2,0.05-6.4,0.01-9.6,0.01c-88.08,0-176.17,0-264.25,0c-10.34,0-18.46-6.09-20.8-15.7
		c-0.49-2.02-0.63-4.16-0.63-6.25c-0.03-89.01-0.01-178.02-0.05-267.04c0-10.44,3.56-19.21,10.97-26.57
		c19.4-19.28,38.71-38.65,58.05-57.99c6.64-6.64,14.59-10.22,24.01-10.44c0.91-0.02,1.83-0.05,2.74-0.05
		c65.77,0,131.53,0.02,197.3-0.03c6.53-0.01,12.29,1.61,16.89,6.43c4.07,4.26,5.75,9.41,5.73,15.25
		c-0.04,14.45-0.01,28.91-0.01,43.36c0,1.07,0,2.14,0,3.54c1.5,0,2.66,0,3.82,0c32.38,0,64.76,0.02,97.14-0.02
		c6.12-0.01,11.57,1.58,15.99,5.96c4.25,4.2,6.23,9.36,6.22,15.32c-0.01,22.14,0,44.28,0,66.42c0,55.07,0.01,110.14-0.01,165.21
		c0,10.95-6.87,19.33-17.32,21.18c-1.52,0.27-3.09,0.27-4.64,0.27c-32.56,0.01-65.13,0.01-97.69,0.01
		C348.69,400.87,347.62,400.87,346.25,400.87z M126.69,71.73c0,1.55,0,2.71,0,3.88c0,18.76,0.02,37.51-0.01,56.27
		c-0.02,13.59-8.56,22.09-22.11,22.1c-18.75,0.01-37.51,0-56.26,0c-3.95,0-3.96,0-3.96,3.99c0,86.92,0,173.84,0,260.76
		c0,0.64-0.01,1.28,0.01,1.92c0.12,4.99,2.73,7.63,7.67,7.63c90.93,0.01,181.86,0.01,272.79,0c4.93,0,7.59-2.64,7.65-7.64
		c0.06-5.85,0.02-11.71,0-17.57c0-0.69-0.17-1.37-0.28-2.21c-1.18,0-2.18,0-3.17,0c-28.54,0-57.08,0.02-85.63-0.01
		c-11.93-0.01-20.96-8.88-20.97-20.72c-0.03-77.59-0.02-155.17,0.02-232.76c0-2.16,0.33-4.4,0.97-6.46
		c2.77-8.98,10.58-14.36,20.73-14.37c28.18-0.03,56.35-0.01,84.53-0.01c1.16,0,2.32,0,3.42,0c0.19-0.57,0.34-0.82,0.34-1.08
		c0.01-15.74,0.09-31.47-0.12-47.21c-0.02-1.73-1.31-3.98-2.72-5c-1.54-1.11-3.91-1.46-5.91-1.46
		c-64.49-0.07-128.99-0.06-193.48-0.06C129.21,71.73,128.21,71.73,126.69,71.73z M455.68,222.08c0-1.06,0-1.88,0-2.69
		c0-23.61,0-47.21,0-70.82c0-5.74-2.58-8.29-8.45-8.29c-67.6-0.01-135.21-0.01-202.81,0c-5.81,0-8.27,2.53-8.27,8.41
		c0,23.51,0,47.03,0,70.54c0,0.89,0,1.79,0,2.85C309.37,222.08,382.32,222.08,455.68,222.08z M236.15,236.15c0,1.14,0,2.04,0,2.93
		c0,46.56,0,93.12,0,139.68c0,6.02,2.41,8.37,8.54,8.37c67.41,0,134.81,0,202.22,0c6.38,0,8.77-2.38,8.77-8.75
		c0-46.38,0-92.76,0-139.13c0-0.98,0-1.96,0-3.1C382.43,236.15,309.48,236.15,236.15,236.15z M48.85,140.24c0.47,0,1.28,0,2.1,0
		c17.91,0,35.83,0.01,53.74,0c5.87,0,8.24-2.4,8.24-8.39c0.02-17.82,0.01-35.65,0-53.47c0-0.85-0.1-1.71-0.13-2.16
		C91.49,97.54,70.18,118.88,48.85,140.24z"/>
	<path class="st1" d="M442.31,311.64c0,15.46-0.03,30.91,0.02,46.37c0.02,4.96-1.44,9.16-5.47,12.26c-2.65,2.04-5.66,2.82-8.98,2.81
		c-8.5-0.04-17.01,0-25.51-0.02c-9.44-0.02-14.95-5.53-14.98-15.04c-0.04-13.35-0.01-26.7-0.01-40.06c0-17.74,0.03-35.48-0.02-53.23
		c-0.01-5.18,1.41-9.8,5.98-12.47c2.55-1.49,5.78-2.37,8.75-2.48c8.49-0.32,17-0.16,25.51-0.1c9.13,0.07,14.66,5.6,14.7,14.77
		C442.35,280.18,442.31,295.91,442.31,311.64z M428.37,359.15c0-32.02,0-63.71,0-95.57c-9.08,0-17.99,0-27.08,0
		c0,31.87,0,63.63,0,95.57C410.37,359.15,419.27,359.15,428.37,359.15z"/>
	<path class="st1" d="M277.79,249.67c4.3,0,8.6-0.06,12.9,0.01c8.67,0.14,14.25,5.61,14.36,14.27c0.12,8.78,0.13,17.56,0,26.34
		c-0.13,8.62-5.8,14.15-14.44,14.22c-8.69,0.07-17.38,0.07-26.07,0c-8.6-0.07-14.25-5.66-14.36-14.29c-0.12-8.78-0.12-17.56,0-26.34
		c0.12-8.53,5.66-14.02,14.16-14.19C268.83,249.6,273.31,249.68,277.79,249.67z M264.06,263.58c0,9.02,0,17.94,0,27.04
		c9.08,0,18,0,27.08,0c0-9.05,0-17.95,0-27.04C282.06,263.58,273.15,263.58,264.06,263.58z"/>
	<path class="st1" d="M346.39,249.67c4.3,0,8.6-0.06,12.9,0.01c8.68,0.14,14.25,5.6,14.37,14.26c0.12,8.78,0.13,17.56,0,26.34
		c-0.13,8.63-5.8,14.16-14.43,14.23c-8.69,0.07-17.38,0.07-26.07,0c-8.61-0.07-14.26-5.65-14.37-14.28
		c-0.12-8.78-0.12-17.56,0-26.34c0.12-8.64,5.72-14.08,14.42-14.21C337.61,249.62,342,249.67,346.39,249.67z M332.68,263.57
		c0,9.06,0,17.97,0,27.05c9.09,0,18.01,0,27.07,0c0-9.08,0-17.98,0-27.05C350.66,263.57,341.75,263.57,332.68,263.57z"/>
	<path class="st1" d="M277.56,373.06c-4.48,0-8.96,0.06-13.44-0.01c-7.91-0.13-13.65-5.44-13.86-13.32
		c-0.25-9.41-0.25-18.85,0.01-28.26c0.21-7.53,5.58-12.92,13.14-13.14c9.5-0.27,19.03-0.28,28.53,0.01
		c7.54,0.23,12.84,5.66,13.04,13.24c0.25,9.41,0.26,18.85-0.01,28.26c-0.22,7.74-5.96,13.04-13.69,13.2
		C286.7,373.14,282.13,373.06,277.56,373.06z M264.15,332.13c0,9.19,0,18.1,0,26.95c9.17,0,18.07,0,27.01,0c0-9.09,0-17.93,0-26.95
		C282.1,332.13,273.19,332.13,264.15,332.13z"/>
	<path class="st1" d="M346.11,373.07c-4.39,0-8.78,0.05-13.17-0.01c-8.19-0.11-13.92-5.49-14.1-13.66c-0.2-9.14-0.2-18.3,0-27.44
		c0.17-7.97,5.56-13.46,13.53-13.66c9.23-0.24,18.48-0.24,27.71,0c7.98,0.2,13.38,5.66,13.56,13.63c0.21,9.14,0.2,18.3,0,27.44
		c-0.18,8.18-5.9,13.58-14.08,13.69C355.07,373.11,350.59,373.07,346.11,373.07z M332.69,359.15c9.09,0,17.99,0,27.07,0
		c0-9.08,0-17.99,0-27.04c-9.09,0-18,0-27.07,0C332.69,341.18,332.69,350.08,332.69,359.15z"/>
	<path class="st1" d="M229.98,206.81H81.31c-0.23,0-0.42-0.19-0.42-0.42v-14.38c0-0.23,0.19-0.42,0.42-0.42h148.67
		c0.23,0,0.42,0.19,0.42,0.42v14.38C230.4,206.62,230.22,206.81,229.98,206.81z"/>
	<path class="st1" d="M229.98,257.62H81.31c-0.23,0-0.42-0.19-0.42-0.42v-14.38c0-0.23,0.19-0.42,0.42-0.42h148.67
		c0.23,0,0.42,0.19,0.42,0.42v14.38C230.4,257.44,230.22,257.62,229.98,257.62z"/>
	<path class="st1" d="M229.98,308.44H81.31c-0.23,0-0.42-0.19-0.42-0.42v-14.38c0-0.23,0.19-0.42,0.42-0.42h148.67
		c0.23,0,0.42,0.19,0.42,0.42v14.38C230.4,308.25,230.22,308.44,229.98,308.44z"/>
	<path class="st1" d="M229.98,359.26H81.31c-0.23,0-0.42-0.19-0.42-0.42v-14.38c0-0.23,0.19-0.42,0.42-0.42h148.67
		c0.23,0,0.42,0.19,0.42,0.42v14.38C230.4,359.07,230.22,359.26,229.98,359.26z"/>
</g>
</svg>
