<svg version="1.2" baseProfile="tiny-ps" xmlns="http://www.w3.org/2000/svg" viewBox="0 0 256 256" width="256" height="256">
	<title>&lt;/Layer group&gt; copy</title>
	<style>
		tspan { white-space:pre }
		.shp0 { fill: #f18247 } 
	</style>
	<g id="&lt;Group&gt; copy">
		<path id="&lt;Path&gt;" class="shp0" d="M173.17 153.24L173.17 44.49C172.69 36.28 166.21 32.89 153.73 34.34L51.49 34.34C44.18 32.89 41.01 38.93 41.97 52.47L41.97 190.22C42.08 197.1 46.93 199.82 56.53 198.37L118.85 198.37C137.97 210.71 142.73 222.44 133.13 233.56L19.09 233.56C7.09 231.73 1.81 224.78 3.25 212.69L3.25 18.39C0.85 6.31 6.37 0.99 19.81 2.44L190.45 2.44C201.68 -0.94 208.25 5.1 210.17 20.57L210.17 152.52C200.38 173.3 188.53 178.14 174.61 167.02L173.17 153.24Z" />
		<path id="&lt;Path&gt;" class="shp0" d="M146.65 77.32L64.57 77.32C56.25 77.32 49.45 70.51 49.45 62.2L49.45 62.2C49.45 53.88 56.25 47.08 64.57 47.08L146.65 47.08C154.97 47.08 161.77 53.88 161.77 62.2L161.77 62.2C161.77 70.51 154.97 77.32 146.65 77.32Z" />
		<path id="&lt;Path&gt;" class="shp0" d="M146.65 118.76L64.57 118.76C56.25 118.76 49.45 111.95 49.45 103.64L49.45 103.64C49.45 95.32 56.25 88.52 64.57 88.52L146.65 88.52C154.97 88.52 161.77 95.32 161.77 103.64L161.77 103.64C161.77 111.95 154.97 118.76 146.65 118.76Z" />
		<path id="&lt;Path&gt;" class="shp0" d="M146.65 158.36L64.57 158.36C56.25 158.36 49.45 151.55 49.45 143.24L49.45 143.24C49.45 134.92 56.25 128.12 64.57 128.12L146.65 128.12C154.97 128.12 161.77 134.92 161.77 143.24L161.77 143.24C161.77 151.55 154.97 158.36 146.65 158.36Z" />
		<path id="&lt;Path&gt;" class="shp0" d="M155.17 183.88L130.69 173.08C120.13 171.16 117.97 177.16 124.21 191.08L163.81 245.8C169.57 250.6 175.09 250.6 180.37 245.8L246.61 155.8C248.53 145.24 244.45 141.88 234.37 145.72L175.33 188.2C169.57 193.48 162.85 192.04 155.17 183.88Z" />
	</g>
</svg>