<svg version="1.2" baseProfile="tiny-ps" xmlns="http://www.w3.org/2000/svg" viewBox="0 0 1200 259" width="1200" height="259">
	<title>Tourwiz logo - high reso coloured file-ai</title>
	<style>
		tspan { white-space:pre }
		.shp0 { fill: #ffffff } 
	</style>
	<g id="Layer 1">
		<path id="Work Smarter, Sell More  " fill="#ffffff" aria-label="Work Smarter, Sell More
"  d="M437.07 190.97L442.97 190.97L425.49 247L418.69 247L404.5 204.26Q404.3 203.64 404.11 202.93Q403.95 202.23 403.75 201.45Q403.56 202.23 403.36 202.93Q403.17 203.64 402.97 204.26L388.7 247L381.9 247L364.42 190.97L370.72 190.97Q371.73 190.97 372.4 191.48Q373.1 191.99 373.3 192.77L384.87 231.71Q385.14 232.77 385.38 233.98Q385.65 235.19 385.89 236.56Q386.16 235.19 386.43 233.98Q386.75 232.73 387.1 231.71L400.27 192.77Q400.51 192.1 401.17 191.56Q401.88 190.97 402.86 190.97L405.04 190.97Q406.06 190.97 406.69 191.48Q407.31 191.99 407.63 192.77L420.76 231.71Q421.11 232.73 421.39 233.9Q421.7 235.07 421.97 236.36Q422.17 235.07 422.41 233.9Q422.64 232.73 422.91 231.71L434.53 192.77Q434.72 192.06 435.39 191.52Q436.09 190.97 437.07 190.97ZM461.97 206.77Q466.31 206.77 469.79 208.21Q473.27 209.66 475.74 212.32Q478.2 214.98 479.49 218.77Q480.82 222.52 480.82 227.18Q480.82 231.87 479.49 235.62Q478.2 239.38 475.74 242.03Q473.27 244.69 469.79 246.14Q466.31 247.55 461.97 247.55Q457.59 247.55 454.08 246.14Q450.6 244.69 448.13 242.03Q445.67 239.38 444.34 235.62Q443.05 231.87 443.05 227.18Q443.05 222.52 444.34 218.77Q445.67 214.98 448.13 212.32Q450.6 209.66 454.08 208.21Q457.59 206.77 461.97 206.77ZM461.97 242.11Q467.84 242.11 470.73 238.2Q473.63 234.25 473.63 227.22Q473.63 220.14 470.73 216.19Q467.84 212.24 461.97 212.24Q459 212.24 456.77 213.26Q454.58 214.27 453.1 216.19Q451.65 218.11 450.91 220.92Q450.2 223.7 450.2 227.22Q450.2 234.25 453.1 238.2Q456.03 242.11 461.97 242.11ZM495.76 209.31L496.23 215.33Q498.1 211.26 500.84 209Q503.58 206.69 507.52 206.69Q508.78 206.69 509.91 206.96Q511.08 207.24 511.98 207.82L511.47 213.02Q511.24 214 510.3 214Q509.75 214 508.7 213.77Q507.64 213.53 506.31 213.53Q504.44 213.53 502.95 214.08Q501.5 214.63 500.33 215.72Q499.2 216.78 498.26 218.38Q497.36 219.94 496.62 221.98L496.62 247L489.62 247L489.62 207.39L493.61 207.39Q494.74 207.39 495.17 207.82Q495.6 208.25 495.76 209.31ZM518.08 189.41L525.08 189.41L525.08 223.31L526.88 223.31Q527.66 223.31 528.17 223.11Q528.72 222.88 529.3 222.21L541.82 208.8Q542.36 208.13 542.95 207.78Q543.57 207.39 544.59 207.39L550.89 207.39L536.3 222.91Q535.25 224.24 534.03 224.99Q534.74 225.46 535.29 226.08Q535.87 226.67 536.38 227.45L551.86 247L545.65 247Q544.75 247 544.08 246.73Q543.46 246.41 542.99 245.63L529.97 229.41Q529.38 228.58 528.8 228.35Q528.25 228.08 527.07 228.08L525.08 228.08L525.08 247L518.08 247L518.08 189.41ZM609.97 196.13L608.13 199.73Q607.78 200.31 607.35 200.63Q606.96 200.9 606.37 200.9Q605.7 200.9 604.8 200.24Q603.91 199.57 602.54 198.79Q601.21 197.97 599.29 197.3Q597.42 196.64 594.72 196.64Q592.18 196.64 590.22 197.34Q588.3 198.01 586.98 199.18Q585.69 200.35 585.02 201.96Q584.36 203.52 584.36 205.36Q584.36 207.7 585.49 209.27Q586.66 210.79 588.54 211.89Q590.46 212.98 592.84 213.8Q595.26 214.59 597.77 215.45Q600.31 216.31 602.69 217.4Q605.12 218.46 606.99 220.1Q608.91 221.74 610.04 224.13Q611.22 226.51 611.22 229.99Q611.22 233.67 609.97 236.91Q608.71 240.12 606.29 242.5Q603.91 244.89 600.39 246.26Q596.91 247.63 592.45 247.63Q586.98 247.63 582.52 245.67Q578.06 243.68 574.89 240.31L577.08 236.72Q577.4 236.29 577.83 236.01Q578.3 235.7 578.84 235.7Q579.35 235.7 579.98 236.13Q580.64 236.52 581.46 237.15Q582.28 237.77 583.34 238.52Q584.39 239.26 585.72 239.88Q587.09 240.51 588.81 240.94Q590.53 241.33 592.68 241.33Q595.38 241.33 597.49 240.59Q599.6 239.84 601.05 238.52Q602.54 237.15 603.32 235.27Q604.1 233.39 604.1 231.09Q604.1 228.54 602.93 226.94Q601.79 225.3 599.92 224.2Q598.04 223.11 595.62 222.37Q593.19 221.59 590.69 220.8Q588.19 219.98 585.76 218.93Q583.34 217.87 581.46 216.19Q579.59 214.51 578.41 212.01Q577.28 209.46 577.28 205.75Q577.28 202.78 578.41 200Q579.59 197.23 581.78 195.08Q584 192.93 587.21 191.63Q590.46 190.34 594.64 190.34Q599.33 190.34 603.16 191.83Q607.03 193.32 609.97 196.13ZM626.39 247L619.39 247L619.39 207.39L623.57 207.39Q625.06 207.39 625.41 208.84L625.92 212.91Q628.11 210.21 630.85 208.49Q633.58 206.77 637.18 206.77Q641.17 206.77 643.63 209Q646.13 211.22 647.23 215.02Q648.09 212.87 649.42 211.3Q650.79 209.74 652.47 208.72Q654.15 207.7 656.03 207.24Q657.94 206.77 659.9 206.77Q663.02 206.77 665.45 207.78Q667.91 208.76 669.59 210.68Q671.31 212.59 672.21 215.41Q673.11 218.18 673.11 221.78L673.11 247L666.11 247L666.11 221.78Q666.11 217.13 664.08 214.74Q662.05 212.32 658.22 212.32Q656.49 212.32 654.93 212.94Q653.41 213.53 652.23 214.7Q651.06 215.88 650.36 217.68Q649.69 219.43 649.69 221.78L649.69 247L642.69 247L642.69 221.78Q642.69 217.01 640.78 214.66Q638.86 212.32 635.19 212.32Q632.6 212.32 630.42 213.73Q628.23 215.09 626.39 217.48L626.39 247ZM705.17 237.38L705.17 229.17Q700.36 229.33 696.96 229.95Q693.6 230.54 691.45 231.52Q689.34 232.49 688.36 233.82Q687.42 235.15 687.42 236.79Q687.42 238.36 687.93 239.49Q688.44 240.63 689.3 241.37Q690.2 242.07 691.37 242.43Q692.58 242.74 693.95 242.74Q695.79 242.74 697.31 242.39Q698.84 242 700.17 241.29Q701.54 240.59 702.75 239.61Q704 238.63 705.17 237.38ZM683.94 215.21L682.69 212.98Q685.98 209.82 689.77 208.25Q693.56 206.69 698.17 206.69Q701.5 206.69 704.08 207.78Q706.66 208.88 708.42 210.83Q710.18 212.79 711.08 215.56Q711.98 218.34 711.98 221.66L711.98 247L708.89 247Q707.87 247 707.32 246.69Q706.78 246.34 706.46 245.36L705.68 241.6Q704.12 243.05 702.63 244.18Q701.15 245.28 699.5 246.06Q697.86 246.8 695.99 247.23Q694.15 247.63 691.88 247.63Q689.57 247.63 687.54 247Q685.51 246.34 683.98 245.05Q682.5 243.75 681.6 241.8Q680.74 239.81 680.74 237.11Q680.74 234.76 682.03 232.61Q683.32 230.42 686.21 228.74Q689.1 227.06 693.76 226Q698.41 224.91 705.17 224.75L705.17 221.66Q705.17 217.05 703.18 214.7Q701.19 212.32 697.35 212.32Q694.77 212.32 693.01 212.98Q691.29 213.61 690 214.43Q688.75 215.21 687.81 215.88Q686.91 216.5 686.01 216.5Q685.31 216.5 684.8 216.15Q684.29 215.76 683.94 215.21ZM728.71 209.31L729.18 215.33Q731.06 211.26 733.79 209Q736.53 206.69 740.48 206.69Q741.73 206.69 742.87 206.96Q744.04 207.24 744.94 207.82L744.43 213.02Q744.2 214 743.26 214Q742.71 214 741.65 213.77Q740.6 213.53 739.27 213.53Q737.39 213.53 735.91 214.08Q734.46 214.63 733.29 215.72Q732.15 216.78 731.21 218.38Q730.31 219.94 729.57 221.98L729.57 247L722.57 247L722.57 207.39L726.56 207.39Q727.7 207.39 728.13 207.82Q728.56 208.25 728.71 209.31ZM763.2 247.63Q758.51 247.63 755.96 245.01Q753.46 242.39 753.46 237.46L753.46 213.22L748.69 213.22Q748.07 213.22 747.64 212.87Q747.21 212.47 747.21 211.69L747.21 208.92L753.7 208.1L755.3 195.86Q755.42 195.27 755.81 194.92Q756.24 194.53 756.9 194.53L760.42 194.53L760.42 208.17L771.88 208.17L771.88 213.22L760.42 213.22L760.42 236.99Q760.42 239.49 761.63 240.7Q762.85 241.92 764.76 241.92Q765.86 241.92 766.64 241.64Q767.46 241.33 768.05 240.98Q768.63 240.63 769.02 240.35Q769.45 240.04 769.77 240.04Q770.31 240.04 770.74 240.7L772.78 244.03Q770.98 245.71 768.44 246.69Q765.9 247.63 763.2 247.63ZM783.73 222.88L805.39 222.88Q805.39 220.45 804.68 218.46Q804.02 216.42 802.69 214.98Q801.4 213.49 799.52 212.71Q797.64 211.89 795.26 211.89Q790.25 211.89 787.32 214.82Q784.43 217.71 783.73 222.88ZM809.06 238.91L811.02 241.45Q809.73 243.01 807.93 244.18Q806.13 245.32 804.06 246.06Q802.02 246.8 799.83 247.2Q797.64 247.55 795.49 247.55Q791.39 247.55 787.91 246.18Q784.47 244.77 781.93 242.11Q779.42 239.41 778.02 235.47Q776.61 231.52 776.61 226.39Q776.61 222.25 777.86 218.65Q779.15 215.06 781.54 212.44Q783.92 209.78 787.36 208.29Q790.8 206.77 795.1 206.77Q798.66 206.77 801.67 207.98Q804.72 209.15 806.91 211.42Q809.14 213.65 810.39 216.97Q811.64 220.26 811.64 224.48Q811.64 226.12 811.29 226.67Q810.94 227.22 809.96 227.22L783.49 227.22Q783.61 230.97 784.51 233.75Q785.45 236.52 787.09 238.4Q788.73 240.24 791 241.17Q793.27 242.07 796.08 242.07Q798.7 242.07 800.58 241.49Q802.49 240.86 803.86 240.16Q805.23 239.45 806.13 238.87Q807.07 238.24 807.73 238.24Q808.59 238.24 809.06 238.91ZM826.3 209.31L826.77 215.33Q828.65 211.26 831.39 209Q834.12 206.69 838.07 206.69Q839.32 206.69 840.46 206.96Q841.63 207.24 842.53 207.82L842.02 213.02Q841.79 214 840.85 214Q840.3 214 839.25 213.77Q838.19 213.53 836.86 213.53Q834.98 213.53 833.5 214.08Q832.05 214.63 830.88 215.72Q829.75 216.78 828.81 218.38Q827.91 219.94 827.16 221.98L827.16 247L820.17 247L820.17 207.39L824.15 207.39Q825.29 207.39 825.72 207.82Q826.15 208.25 826.3 209.31ZM846.21 257.6L845.03 256.46Q844.72 256.19 844.6 255.95Q844.49 255.72 844.49 255.37Q844.49 255.09 844.64 254.82Q844.84 254.55 845.07 254.31Q845.46 253.88 846.05 253.18Q846.68 252.47 847.3 251.54Q847.93 250.56 848.43 249.42Q848.98 248.25 849.22 246.96Q849.1 247 848.94 247Q848.83 247 848.71 247Q846.68 247 845.39 245.67Q844.13 244.3 844.13 242.19Q844.13 240.35 845.39 239.06Q846.68 237.77 848.79 237.77Q849.96 237.77 850.86 238.2Q851.76 238.63 852.34 239.41Q852.97 240.16 853.28 241.17Q853.6 242.15 853.6 243.32Q853.6 245.08 853.09 247Q852.62 248.88 851.64 250.75Q850.7 252.59 849.33 254.35Q847.97 256.11 846.21 257.6ZM915.37 196.13L913.54 199.73Q913.18 200.31 912.75 200.63Q912.36 200.9 911.78 200.9Q911.11 200.9 910.21 200.24Q909.31 199.57 907.94 198.79Q906.62 197.97 904.7 197.3Q902.82 196.64 900.12 196.64Q897.58 196.64 895.63 197.34Q893.71 198.01 892.38 199.18Q891.09 200.35 890.43 201.96Q889.76 203.52 889.76 205.36Q889.76 207.7 890.9 209.27Q892.07 210.79 893.95 211.89Q895.86 212.98 898.25 213.8Q900.67 214.59 903.17 215.45Q905.72 216.31 908.1 217.4Q910.53 218.46 912.4 220.1Q914.32 221.74 915.45 224.13Q916.62 226.51 916.62 229.99Q916.62 233.67 915.37 236.91Q914.12 240.12 911.7 242.5Q909.31 244.89 905.79 246.26Q902.31 247.63 897.86 247.63Q892.38 247.63 887.93 245.67Q883.47 243.68 880.3 240.31L882.49 236.72Q882.8 236.29 883.23 236.01Q883.7 235.7 884.25 235.7Q884.76 235.7 885.38 236.13Q886.05 236.52 886.87 237.15Q887.69 237.77 888.75 238.52Q889.8 239.26 891.13 239.88Q892.5 240.51 894.22 240.94Q895.94 241.33 898.09 241.33Q900.79 241.33 902.9 240.59Q905.01 239.84 906.46 238.52Q907.94 237.15 908.73 235.27Q909.51 233.39 909.51 231.09Q909.51 228.54 908.34 226.94Q907.2 225.3 905.32 224.2Q903.45 223.11 901.02 222.37Q898.6 221.59 896.1 220.8Q893.6 219.98 891.17 218.93Q888.75 217.87 886.87 216.19Q884.99 214.51 883.82 212.01Q882.69 209.46 882.69 205.75Q882.69 202.78 883.82 200Q884.99 197.23 887.18 195.08Q889.41 192.93 892.62 191.63Q895.86 190.34 900.05 190.34Q904.74 190.34 908.57 191.83Q912.44 193.32 915.37 196.13ZM930.27 222.88L951.93 222.88Q951.93 220.45 951.23 218.46Q950.56 216.42 949.23 214.98Q947.94 213.49 946.07 212.71Q944.19 211.89 941.8 211.89Q936.8 211.89 933.87 214.82Q930.97 217.71 930.27 222.88ZM955.61 238.91L957.56 241.45Q956.27 243.01 954.47 244.18Q952.67 245.32 950.6 246.06Q948.57 246.8 946.38 247.2Q944.19 247.55 942.04 247.55Q937.93 247.55 934.45 246.18Q931.01 244.77 928.47 242.11Q925.97 239.41 924.56 235.47Q923.15 231.52 923.15 226.39Q923.15 222.25 924.41 218.65Q925.7 215.06 928.08 212.44Q930.47 209.78 933.91 208.29Q937.35 206.77 941.65 206.77Q945.21 206.77 948.22 207.98Q951.27 209.15 953.46 211.42Q955.69 213.65 956.94 216.97Q958.19 220.26 958.19 224.48Q958.19 226.12 957.84 226.67Q957.48 227.22 956.51 227.22L930.04 227.22Q930.15 230.97 931.05 233.75Q931.99 236.52 933.63 238.4Q935.28 240.24 937.54 241.17Q939.81 242.07 942.63 242.07Q945.25 242.07 947.12 241.49Q949.04 240.86 950.41 240.16Q951.78 239.45 952.67 238.87Q953.61 238.24 954.28 238.24Q955.14 238.24 955.61 238.91ZM966.95 189.41L973.91 189.41L973.91 247L966.95 247L966.95 189.41ZM985.4 189.41L992.36 189.41L992.36 247L985.4 247L985.4 189.41ZM1077.99 190.97L1083.58 190.97L1083.58 247L1076.93 247L1076.93 205.83Q1076.93 205.01 1076.97 204.07Q1077.05 203.13 1077.13 202.15L1057.89 237.19Q1056.99 238.95 1055.15 238.95L1054.06 238.95Q1052.22 238.95 1051.32 237.19L1031.7 202Q1031.93 204.07 1031.93 205.83L1031.93 247L1025.28 247L1025.28 190.97L1030.87 190.97Q1031.89 190.97 1032.44 191.17Q1032.99 191.36 1033.49 192.26L1052.85 226.75Q1053.32 227.68 1053.75 228.7Q1054.22 229.72 1054.61 230.77Q1055 229.72 1055.43 228.7Q1055.86 227.65 1056.37 226.71L1075.37 192.26Q1075.84 191.36 1076.39 191.17Q1076.97 190.97 1077.99 190.97ZM1111.73 206.77Q1116.07 206.77 1119.55 208.21Q1123.03 209.66 1125.5 212.32Q1127.96 214.98 1129.25 218.77Q1130.58 222.52 1130.58 227.18Q1130.58 231.87 1129.25 235.62Q1127.96 239.38 1125.5 242.03Q1123.03 244.69 1119.55 246.14Q1116.07 247.55 1111.73 247.55Q1107.35 247.55 1103.83 246.14Q1100.35 244.69 1097.89 242.03Q1095.43 239.38 1094.1 235.62Q1092.81 231.87 1092.81 227.18Q1092.81 222.52 1094.1 218.77Q1095.43 214.98 1097.89 212.32Q1100.35 209.66 1103.83 208.21Q1107.35 206.77 1111.73 206.77ZM1111.73 242.11Q1117.6 242.11 1120.49 238.2Q1123.38 234.25 1123.38 227.22Q1123.38 220.14 1120.49 216.19Q1117.6 212.24 1111.73 212.24Q1108.76 212.24 1106.53 213.26Q1104.34 214.27 1102.86 216.19Q1101.41 218.11 1100.67 220.92Q1099.96 223.7 1099.96 227.22Q1099.96 234.25 1102.86 238.2Q1105.79 242.11 1111.73 242.11ZM1145.51 209.31L1145.98 215.33Q1147.86 211.26 1150.6 209Q1153.33 206.69 1157.28 206.69Q1158.53 206.69 1159.67 206.96Q1160.84 207.24 1161.74 207.82L1161.23 213.02Q1161 214 1160.06 214Q1159.51 214 1158.46 213.77Q1157.4 213.53 1156.07 213.53Q1154.19 213.53 1152.71 214.08Q1151.26 214.63 1150.09 215.72Q1148.95 216.78 1148.02 218.38Q1147.12 219.94 1146.37 221.98L1146.37 247L1139.38 247L1139.38 207.39L1143.36 207.39Q1144.5 207.39 1144.93 207.82Q1145.36 208.25 1145.51 209.31ZM1171.09 222.88L1192.75 222.88Q1192.75 220.45 1192.04 218.46Q1191.38 216.42 1190.05 214.98Q1188.76 213.49 1186.88 212.71Q1185 211.89 1182.62 211.89Q1177.62 211.89 1174.68 214.82Q1171.79 217.71 1171.09 222.88ZM1196.42 238.91L1198.38 241.45Q1197.09 243.01 1195.29 244.18Q1193.49 245.32 1191.42 246.06Q1189.38 246.8 1187.19 247.2Q1185 247.55 1182.85 247.55Q1178.75 247.55 1175.27 246.18Q1171.83 244.77 1169.29 242.11Q1166.78 239.41 1165.38 235.47Q1163.97 231.52 1163.97 226.39Q1163.97 222.25 1165.22 218.65Q1166.51 215.06 1168.9 212.44Q1171.28 209.78 1174.72 208.29Q1178.16 206.77 1182.46 206.77Q1186.02 206.77 1189.03 207.98Q1192.08 209.15 1194.27 211.42Q1196.5 213.65 1197.75 216.97Q1199 220.26 1199 224.48Q1199 226.12 1198.65 226.67Q1198.3 227.22 1197.32 227.22L1170.85 227.22Q1170.97 230.97 1171.87 233.75Q1172.81 236.52 1174.45 238.4Q1176.09 240.24 1178.36 241.17Q1180.63 242.07 1183.44 242.07Q1186.06 242.07 1187.94 241.49Q1189.85 240.86 1191.22 240.16Q1192.59 239.45 1193.49 238.87Q1194.43 238.24 1195.09 238.24Q1195.95 238.24 1196.42 238.91Z" />
		<path id="&lt;Path&gt;" class="shp0" d="M1095.63 109.96L944.99 109.96C940.5 109.96 936.83 106.29 936.83 101.8L936.83 42.83C936.83 38.34 940.5 34.67 944.99 34.67L1095.63 34.67C1100.12 34.67 1103.79 38.34 1103.79 42.83L1103.79 101.8C1103.79 106.29 1100.12 109.96 1095.63 109.96Z" />
		<g id="&lt;Group&gt;">
			<path id="Beta " fill="#882a9c" aria-label="Beta"  d="M982.55 84.94L989.75 84.94Q991.69 84.94 993.06 84.49Q994.45 84.03 995.31 83.24Q996.2 82.45 996.61 81.37Q997.02 80.26 997.02 78.97Q997.02 76.4 995.24 74.94Q993.47 73.45 989.75 73.45L982.55 73.45L982.55 84.94ZM988.67 58.54L982.55 58.54L982.55 69.82L988.43 69.82Q992.19 69.82 994.02 68.31Q995.87 66.78 995.87 64.18Q995.87 61.23 994.11 59.89Q992.36 58.54 988.67 58.54ZM977.43 54.54L988.67 54.54Q991.91 54.54 994.21 55.16Q996.54 55.78 998.03 56.96Q999.51 58.14 1000.21 59.82Q1000.93 61.47 1000.93 63.58Q1000.93 64.83 1000.55 65.98Q1000.16 67.14 999.37 68.14Q998.58 69.13 997.38 69.92Q996.18 70.71 994.55 71.24Q1002.06 72.73 1002.06 79.09Q1002.06 81.3 1001.24 83.12Q1000.43 84.92 998.87 86.24Q997.31 87.56 995.03 88.28Q992.75 89 989.84 89L977.43 89L977.43 54.54ZM1010.67 74.1L1023.44 74.1Q1023.44 72.7 1023.03 71.53Q1022.65 70.35 1021.88 69.49Q1021.11 68.62 1020.01 68.14Q1018.91 67.66 1017.47 67.66Q1014.51 67.66 1012.81 69.37Q1011.13 71.07 1010.67 74.1ZM1025.96 83.79L1027.31 85.52Q1026.44 86.53 1025.31 87.27Q1024.19 87.99 1022.91 88.45Q1021.64 88.9 1020.27 89.12Q1018.93 89.34 1017.61 89.34Q1015.09 89.34 1012.93 88.5Q1010.79 87.63 1009.21 86Q1007.65 84.34 1006.76 81.92Q1005.9 79.47 1005.9 76.3Q1005.9 73.76 1006.69 71.58Q1007.48 69.37 1008.95 67.74Q1010.43 66.1 1012.57 65.17Q1014.71 64.23 1017.37 64.23Q1019.6 64.23 1021.47 64.98Q1023.37 65.7 1024.74 67.09Q1026.11 68.48 1026.87 70.52Q1027.67 72.56 1027.67 75.18Q1027.67 76.26 1027.43 76.64Q1027.19 77 1026.54 77L1010.55 77Q1010.63 79.18 1011.18 80.82Q1011.73 82.42 1012.69 83.5Q1013.67 84.58 1015.02 85.11Q1016.36 85.64 1018.02 85.64Q1019.58 85.64 1020.71 85.28Q1021.86 84.92 1022.67 84.51Q1023.51 84.08 1024.07 83.72Q1024.64 83.36 1025.07 83.36Q1025.65 83.36 1025.96 83.79ZM1040.15 89.38Q1037.19 89.38 1035.59 87.73Q1034 86.07 1034 83L1034 68.41L1031.17 68.41Q1030.76 68.41 1030.47 68.17Q1030.21 67.9 1030.21 67.4L1030.21 65.5L1034.17 64.95L1035.23 57.68Q1035.32 57.27 1035.59 57.06Q1035.87 56.82 1036.31 56.82L1038.68 56.82L1038.68 65L1045.59 65L1045.59 68.41L1038.68 68.41L1038.68 82.69Q1038.68 84.13 1039.38 84.85Q1040.1 85.54 1041.2 85.54Q1041.85 85.54 1042.31 85.38Q1042.79 85.21 1043.12 85.02Q1043.46 84.8 1043.7 84.63Q1043.94 84.46 1044.13 84.46Q1044.37 84.46 1044.49 84.58Q1044.63 84.68 1044.78 84.92L1046.17 87.18Q1045.02 88.23 1043.43 88.81Q1041.85 89.38 1040.15 89.38ZM1062.99 82.98L1062.99 78.18Q1060.14 78.27 1058.15 78.63Q1056.15 78.97 1054.91 79.54Q1053.66 80.12 1053.11 80.91Q1052.55 81.68 1052.55 82.64Q1052.55 83.55 1052.84 84.22Q1053.15 84.87 1053.66 85.3Q1054.19 85.71 1054.88 85.9Q1055.58 86.1 1056.39 86.1Q1057.47 86.1 1058.36 85.88Q1059.27 85.66 1060.07 85.28Q1060.86 84.87 1061.58 84.3Q1062.3 83.72 1062.99 82.98ZM1050.11 69.54L1049.27 68.02Q1051.31 66.08 1053.68 65.12Q1056.08 64.16 1058.94 64.16Q1061.03 64.16 1062.63 64.86Q1064.24 65.53 1065.35 66.75Q1066.45 67.98 1067 69.68Q1067.58 71.38 1067.58 73.45L1067.58 89L1065.49 89Q1064.79 89 1064.43 88.78Q1064.07 88.54 1063.86 87.92L1063.35 85.78Q1062.42 86.65 1061.51 87.32Q1060.59 87.97 1059.59 88.45Q1058.6 88.9 1057.47 89.14Q1056.35 89.38 1054.98 89.38Q1053.54 89.38 1052.27 89Q1051.02 88.59 1050.08 87.78Q1049.15 86.96 1048.59 85.74Q1048.07 84.51 1048.07 82.88Q1048.07 81.44 1048.83 80.12Q1049.63 78.78 1051.38 77.72Q1053.15 76.66 1055.99 75.99Q1058.84 75.32 1062.99 75.22L1062.99 73.45Q1062.99 70.69 1061.82 69.32Q1060.64 67.95 1058.36 67.95Q1056.83 67.95 1055.77 68.34Q1054.74 68.72 1053.97 69.2Q1053.23 69.66 1052.65 70.04Q1052.1 70.42 1051.5 70.42Q1051.02 70.42 1050.66 70.16Q1050.32 69.9 1050.11 69.54Z" />
		</g>
		<path id="TourWiz " fill="#ffffff" aria-label="TourWiz"  d="M347.63 40.65L347.63 61.56L311 61.56L311 166L285 166L285 61.56L248.37 61.56L248.37 40.65L347.63 40.65ZM379.51 75.55Q389.53 75.55 397.73 78.75Q405.94 81.94 411.82 87.91Q417.69 93.78 420.89 102.25Q424.08 110.71 424.08 121.34Q424.08 131.96 420.89 140.52Q417.69 148.98 411.82 154.94Q405.94 160.9 397.73 164.1Q389.53 167.3 379.51 167.3Q369.4 167.3 361.11 164.1Q352.9 160.9 347.02 154.94Q341.15 148.98 337.87 140.52Q334.67 131.96 334.67 121.34Q334.67 110.71 337.87 102.25Q341.15 93.78 347.02 87.91Q352.9 81.94 361.11 78.75Q369.4 75.55 379.51 75.55ZM379.51 149.41Q389.7 149.41 394.62 142.42Q399.55 135.33 399.55 121.42Q399.55 107.6 394.62 100.6Q389.7 93.52 379.51 93.52Q369.05 93.52 364.13 100.6Q359.2 107.6 359.2 121.42Q359.2 135.33 364.13 142.42Q369.05 149.41 379.51 149.41ZM493.45 76.93L517.29 76.93L517.29 166L502.61 166Q498.03 166 496.73 161.85L495.18 155.63Q492.5 158.23 489.65 160.38Q486.8 162.54 483.52 164.1Q480.32 165.65 476.52 166.52Q472.81 167.38 468.4 167.38Q461.14 167.38 455.44 164.88Q449.83 162.37 446.02 157.88Q442.22 153.39 440.24 147.17Q438.25 140.95 438.25 133.52L438.25 76.93L462.09 76.93L462.09 133.52Q462.09 140.95 465.46 145.09Q468.92 149.15 475.66 149.15Q480.67 149.15 485.07 146.99Q489.48 144.75 493.45 140.95L493.45 76.93ZM558.07 82.72L559.37 91.62Q563.6 84.02 569.13 79.61Q574.66 75.21 582.09 75.21Q588.13 75.21 591.93 78.06L590.38 95.68Q589.95 97.41 589 98.1Q588.13 98.7 586.58 98.7Q585.2 98.7 582.6 98.36Q580.01 97.93 577.77 97.93Q574.48 97.93 571.89 98.88Q569.39 99.83 567.4 101.55Q565.41 103.28 563.77 105.79Q562.22 108.29 560.83 111.49L560.83 166L536.99 166L536.99 76.93L551.07 76.93Q554.7 76.93 556.08 78.23Q557.47 79.53 558.07 82.72ZM750.63 40.65L771.02 40.65L732.14 166L708.73 166L683.07 84.02Q682.47 82.29 681.86 80.22Q681.26 78.14 680.74 75.81Q680.22 78.14 679.62 80.22Q679.01 82.29 678.41 84.02L652.49 166L628.99 166L590.21 40.65L611.98 40.65Q615.35 40.65 617.59 42.21Q619.92 43.76 620.61 46.35L640.05 117.02Q640.74 119.96 641.43 123.41Q642.21 126.78 642.9 130.58Q643.68 126.69 644.54 123.32Q645.41 119.96 646.44 117.02L669.08 46.35Q669.77 44.19 672.02 42.47Q674.35 40.65 677.63 40.65L685.23 40.65Q688.6 40.65 690.68 42.29Q692.84 43.85 693.87 46.35L716.42 117.02Q717.46 119.78 718.32 123.07Q719.18 126.26 719.96 129.89Q720.65 126.26 721.26 123.07Q721.95 119.78 722.64 117.02L742.08 46.35Q742.68 44.11 745.01 42.38Q747.35 40.65 750.63 40.65ZM781.56 76.93L805.4 76.93L805.4 166L781.56 166L781.56 76.93ZM808.25 51.62Q808.25 54.65 807.04 57.24Q805.83 59.83 803.76 61.82Q801.77 63.8 799.01 64.93Q796.33 66.05 793.22 66.05Q790.28 66.05 787.6 64.93Q785.01 63.8 783.02 61.82Q781.04 59.83 779.83 57.24Q778.7 54.65 778.7 51.62Q778.7 48.6 779.83 46.01Q781.04 43.33 783.02 41.34Q785.01 39.36 787.6 38.23Q790.28 37.11 793.22 37.11Q796.33 37.11 799.01 38.23Q801.77 39.36 803.76 41.34Q805.83 43.33 807.04 46.01Q808.25 48.6 808.25 51.62ZM890.84 76.93L890.84 86.61Q890.84 89.11 889.97 91.53Q889.11 93.87 887.73 95.33L847.73 148.03L889.71 148.03L889.71 166L820.17 166L820.17 156.15Q820.17 154.68 820.95 152.44Q821.81 150.19 823.28 148.2L863.62 94.9L822.68 94.9L822.68 76.93L890.84 76.93Z" />
		<g id="&lt;Group&gt;">
			<path id="&lt;Path&gt;" class="shp0" d="M173.17 153.24L173.17 44.49C172.69 36.28 166.21 32.89 153.73 34.34L51.49 34.34C44.18 32.89 41.01 38.93 41.97 52.47L41.97 190.22C42.08 197.1 46.93 199.82 56.53 198.37L118.85 198.37C137.97 210.71 142.73 222.44 133.13 233.56L19.09 233.56C7.09 231.73 1.81 224.78 3.25 212.69L3.25 18.39C0.85 6.31 6.37 0.99 19.81 2.44L190.45 2.44C201.68 -0.94 208.25 5.1 210.17 20.57L210.17 152.52C200.38 173.3 188.53 178.14 174.61 167.02L173.17 153.24Z" />
			<path id="&lt;Path&gt;" class="shp0" d="M146.65 77.32L64.57 77.32C56.25 77.32 49.45 70.51 49.45 62.2L49.45 62.2C49.45 53.88 56.25 47.08 64.57 47.08L146.65 47.08C154.97 47.08 161.77 53.88 161.77 62.2L161.77 62.2C161.77 70.51 154.97 77.32 146.65 77.32Z" />
			<path id="&lt;Path&gt;" class="shp0" d="M146.65 118.76L64.57 118.76C56.25 118.76 49.45 111.95 49.45 103.64L49.45 103.64C49.45 95.32 56.25 88.52 64.57 88.52L146.65 88.52C154.97 88.52 161.77 95.32 161.77 103.64L161.77 103.64C161.77 111.95 154.97 118.76 146.65 118.76Z" />
			<path id="&lt;Path&gt;" class="shp0" d="M146.65 158.36L64.57 158.36C56.25 158.36 49.45 151.55 49.45 143.24L49.45 143.24C49.45 134.92 56.25 128.12 64.57 128.12L146.65 128.12C154.97 128.12 161.77 134.92 161.77 143.24L161.77 143.24C161.77 151.55 154.97 158.36 146.65 158.36Z" />
			<path id="&lt;Path&gt;" class="shp0" d="M155.17 183.88L130.69 173.08C120.13 171.16 117.97 177.16 124.21 191.08L163.81 245.8C169.57 250.6 175.09 250.6 180.37 245.8L246.61 155.8C248.53 145.24 244.45 141.88 234.37 145.72L175.33 188.2C169.57 193.48 162.85 192.04 155.17 183.88Z" />
		</g>
	</g>
</svg>